# xmcd CD database file
#
# Track frame offsets:
#	150
#	21235
#	45525
#	91837
#	130645
#	142712
#	166232
#	198000
#	211955
#	235222
#	267287
#	296055
#
# Disc length: 4101 seconds
#
# Revision: 3
# Processed by: cddbd v1.5.1PL2 Copyright (c) Steve Scherf et al.
# Submitted via: CDex 1.51
#
DISCID=9c10030c
DTITLE=Various Artist - Jazz Ballards
DYEAR=1998
DGENRE=Jazz
TTITLE0=Harry Allen - Somewhere Over The Rainbow
TTITLE1=Jazz Network - Smoke Gets In Your Eyes
TTITLE2=Chet Baker - Round Midnight
TTITLE3=Super Jazz Trio - Autumn Leaves
TTITLE4=Diango Reinhardt - Tears
TTITLE5=Sonny Rollins - Where Are You
TTITLE6=Jazz Networks - I Remember Clifford
TTITLE7=Coleman Hawkins - Body and Soul
TTITLE8=Kenny Drew - You Don't Know What Love Is
TTITLE9=Paul Desmond - Easy Living
TTITLE10=Jazz Network - My Ideal
TTITLE11=John Pizzarelli Trio - In The Wee Small Hours
EXTD=YEAR: 1998
EXTT0=
EXTT1=
EXTT2=
EXTT3=
EXTT4=
EXTT5=
EXTT6=
EXTT7=
EXTT8=
EXTT9=
EXTT10=
EXTT11=
PLAYORDER=
